<svg xmlns="http://www.w3.org/2000/svg" viewBox="0 0 132.02 102.97"><defs><style>.cls-1,.cls-3{fill:#ffe600;}.cls-1{opacity:0.7;}.cls-2{opacity:0.5;}.cls-4{fill:#fff;}</style></defs><title>radioactive</title><g id="Layer_2" data-name="Layer 2"><g id="Layer_19" data-name="Layer 19"><path class="cls-1" d="M26.23,20.07,65.77,88.57l39.54-68.49ZM75.73,31a19.38,19.38,0,0,1,8.63,15.92H71a5.21,5.21,0,0,0-2.46-4.42Zm-10,12.19A3.75,3.75,0,1,1,62,47,3.75,3.75,0,0,1,65.77,43.2ZM49.62,37.73A19.28,19.28,0,0,1,55.82,31L63,42.53A5.21,5.21,0,0,0,60.55,47H47.18A19.29,19.29,0,0,1,49.62,37.73Zm16,27.82a19.28,19.28,0,0,1-8.88-2.16l6.56-11.85a5.21,5.21,0,0,0,5.06,0l6.49,11.72A19.28,19.28,0,0,1,65.6,65.55Z"/><g class="cls-2"><polygon class="cls-3" points="86.14 88.57 95 88.57 132.02 51.55 107.6 27.13 106.56 28.92 129.19 51.55 96.12 84.61 86.14 88.57"/><polygon class="cls-3" points="45.88 88.57 35.89 84.61 2.83 51.55 25.16 29.22 24.12 27.43 0 51.55 37.02 88.57 45.88 88.57"/></g><g class="cls-2"><polygon class="cls-3" points="72.73 0 81.26 3.61 92.22 14.57 95.05 14.57 80.47 0 72.73 0"/><polygon class="cls-3" points="51.55 0 36.97 14.57 39.8 14.57 50.8 3.57 59.29 0 51.55 0"/></g><polygon class="cls-4" points="56.46 15.15 65.77 5.84 75.09 15.15 80.74 15.15 65.77 0.18 50.8 15.15 56.46 15.15"/><polygon class="cls-4" points="102 36.41 99.93 40 111.51 51.58 65.77 97.32 20.03 51.58 31.62 40 29.55 36.41 14.38 51.58 65.77 102.97 117.17 51.58 102 36.41"/></g></g></svg>