<svg xmlns="http://www.w3.org/2000/svg" viewBox="0 0 113.26 102.46"><defs><style>.cls-1{fill:#fff;}.cls-2,.cls-4{fill:#8000bc;}.cls-3{fill:#560089;}.cls-4{opacity:0.7;}</style></defs><title>shield</title><g id="Layer_2" data-name="Layer 2"><g id="Layer_19" data-name="Layer 19"><polygon class="cls-1" points="56.63 3.87 71.26 14.63 56.63 0 41.99 14.63 56.63 3.87"/><polyline class="cls-2" points="56.63 10.55 33.36 27.66 33.36 41.01 56.63 25.15"/><polyline class="cls-3" points="56.63 25.15 79.89 41.01 79.89 27.66 56.63 10.55"/><polyline class="cls-3" points="56.63 79.01 79.89 61.89 79.89 51.55 56.63 35.69"/><polyline class="cls-2" points="56.63 35.69 33.36 51.55 33.36 61.89 56.63 79.01"/><polygon class="cls-1" points="85.4 28.77 85.4 33.7 96.48 44.78 91.99 49.26 85.4 55.85 85.4 60.78 94.92 51.26 101.4 44.78 85.4 28.77"/><polygon class="cls-1" points="27.86 28.77 11.85 44.78 18.33 51.26 27.86 60.78 27.86 55.85 21.26 49.26 16.78 44.78 27.86 33.7 27.86 28.77"/><path class="cls-4" d="M84.76,17.34l-8.28,0,8.9,3.23L110.6,45.84l-22.9,22.9L56.63,91.36,25.56,68.74,2.66,45.84,27.81,20.69l9-3.3-8.28,0L0,45.84l56.63,56.63,56.63-56.63Z"/></g></g></svg>