<svg xmlns="http://www.w3.org/2000/svg" viewBox="0 0 99.67 95.1"><defs><style>.cls-1{fill:#00ff73;opacity:0.7;}.cls-2{fill:#fff;}</style></defs><title>weight_1</title><g id="Layer_2" data-name="Layer 2"><g id="Layer_19" data-name="Layer 19"><path class="cls-1" d="M61.94,44.15l-3.57,5.74h-.13v.22L53,58.57H76.72l-5.18-8.49v-.19h-.12L65.4,40H32.67l8.47,13.64H28l5.28-8.49-1.63-1-9,14.42H46.45L36.13,41.94H64.32l4.85,8H60.63l2.94-4.73Zm8.4,7.66,3,4.84H56.43l3-4.84Z"/><polygon class="cls-1" points="50.68 72.06 50.68 70.35 56.67 70.35 56.67 68.42 50.68 68.42 50.68 43.26 48.75 43.26 48.75 68.42 42.49 68.42 42.49 70.35 48.75 70.35 48.75 72.06 27.98 72.06 31.31 73.98 68.36 73.98 71.69 72.06 50.68 72.06"/><polygon class="cls-2" points="51.59 86.32 54.92 84.4 44.75 84.4 48.08 86.32 51.59 86.32"/><polygon class="cls-2" points="33.58 32.01 30.25 33.93 21.81 48.54 21.81 52.38 33.58 32.01"/><polygon class="cls-2" points="77.86 52.38 77.86 48.53 69.43 33.93 66.1 32.01 77.86 52.38"/><polygon class="cls-2" points="25.53 84.4 3.33 84.4 12.21 69.02 12.21 65.18 0 86.32 28.86 86.32 25.53 84.4"/><polygon class="cls-2" points="43.19 15.36 49.84 3.84 56.49 15.36 59.82 17.29 49.84 0 39.86 17.29 43.19 15.36"/><polygon class="cls-2" points="87.47 65.18 87.47 69.02 96.34 84.4 74.14 84.4 70.81 86.32 99.67 86.32 87.47 65.18"/><polygon class="cls-2" points="15.09 74.86 15.09 75.04 15.24 75.13 15.09 74.86"/><polygon class="cls-2" points="49.84 90.66 23.79 75.62 19.94 77.84 49.84 95.1 79.78 77.81 75.94 75.59 49.84 90.66"/><polygon class="cls-2" points="49.84 14.85 15.09 34.91 15.09 69.55 18.93 67.33 18.93 37.13 49.84 19.29 80.74 37.13 80.74 67.27 84.58 69.49 84.58 34.91 49.84 14.85"/></g></g></svg>