<svg xmlns="http://www.w3.org/2000/svg" viewBox="0 0 21.46 21.46"><defs><style>.cls-1{fill:#00ffb0;}</style></defs><title>gear2_square</title><g id="Layer_2" data-name="Layer 2"><g id="Layer_8" data-name="Layer 8"><path class="cls-1" d="M21.46,11.9V9.56L18.06,9a7.49,7.49,0,0,0-.91-2.2l2-2.81L17.49,2.31l-2.81,2a7.49,7.49,0,0,0-2.2-.91L11.9,0H9.56L9,3.4a7.49,7.49,0,0,0-2.2.91L4,2.31,2.31,4l2,2.81A7.49,7.49,0,0,0,3.4,9L0,9.56V11.9l3.4.58a7.49,7.49,0,0,0,.91,2.2l-2,2.81L4,19.15l2.81-2a7.49,7.49,0,0,0,2.2.91l.58,3.4H11.9l.58-3.4a7.49,7.49,0,0,0,2.2-.91l2.81,2,1.66-1.66-2-2.81a7.49,7.49,0,0,0,.91-2.2Zm-10.73,2a3.16,3.16,0,1,1,3.16-3.16A3.16,3.16,0,0,1,10.73,13.89Z"/></g></g></svg>